<?xml version="1.0" encoding="UTF-8" standalone="no"?>
<!DOCTYPE svg PUBLIC "-//W3C//DTD SVG 1.1//EN" "http://www.w3.org/Graphics/SVG/1.1/DTD/svg11.dtd">
<svg width="100%" height="100%" viewBox="0 0 202 118" version="1.1" xmlns="http://www.w3.org/2000/svg" xmlns:xlink="http://www.w3.org/1999/xlink" xml:space="preserve" xmlns:serif="http://www.serif.com/" style="fill-rule:evenodd;clip-rule:evenodd;stroke-linejoin:round;stroke-miterlimit:2;">
    <g id="Calque1">
        <g transform="matrix(1,0,0,1,0.249761,-0.0042735)">
            <circle cx="100.5" cy="58.5" r="2.5"/>
        </g>
        <g transform="matrix(1,0,0,1,-100.5,-58.5)">
            <circle cx="100.5" cy="58.5" r="2.5"/>
        </g>
        <g transform="matrix(1,0,0,1,-100.5,59.5)">
            <circle cx="100.5" cy="58.5" r="2.5"/>
        </g>
        <g transform="matrix(1,0,0,1,101.5,59.5)">
            <circle cx="100.5" cy="58.5" r="2.5"/>
        </g>
        <g transform="matrix(1,0,0,1,101.5,-58.5)">
            <circle cx="100.5" cy="58.5" r="2.5"/>
        </g>
        <path d="M-0.5,2.867C-2,1 1,-2 2.788,-0.5L66.422,-0.5L67.187,-1.178L99.592,55.712C99.801,55.629 100.026,55.569 100.264,55.533L100.502,-0.502C100.835,-0.501 101.169,-0.499 101.502,-0.498L101.264,55.554C101.449,55.597 101.628,55.66 101.797,55.742L133.809,-1.177C134.1,-1.013 134.576,-0.5 134.576,-0.5L199.042,-0.5C199.081,-0.741 199.154,-0.987 199.265,-1.235C199.757,-2.321 200.747,-3.016 202.077,-2.999C204.65,-2.901 206.311,1.433 203.168,2.764C202.952,2.855 202.727,2.913 202.5,2.94L202.5,115.056C204.823,115.574 206.136,119.508 203.168,120.764C201.556,121.446 199.487,120.221 199.083,118.5L133.5,118.5L133.5,118.13L101.697,61.34C101.547,61.387 101.394,61.418 101.239,61.436L100.997,118.502L99.997,118.498L100.24,61.36C100.126,61.331 100.012,61.296 99.901,61.254L67.5,118.132L67.5,118.5L2.877,118.5C2.808,119.419 2.298,120.285 1.168,120.764C-0.972,121.67 -3.916,119.214 -2.704,116.699C-2.274,115.809 -1.529,115.194 -0.5,115.039L-0.5,2.867ZM102.849,60.659C102.768,60.737 102.681,60.811 102.586,60.881L134.293,117.5L199.044,117.5C199.072,117.315 199.121,117.128 199.193,116.939L102.849,60.659ZM99,60.747L2.639,117.037C2.699,117.188 2.749,117.343 2.788,117.5L66.709,117.5L99.027,60.768C99.018,60.761 99.009,60.754 99,60.747ZM32.298,58.997L1.775,115.755C1.909,115.881 2.033,116.019 2.147,116.167L98.29,60.004C98.126,59.769 97.995,59.514 97.904,59.244C76.019,59.237 54.154,59.155 32.298,58.997ZM168.618,58.998C146.913,59.155 125.241,59.237 103.59,59.244C103.556,59.446 103.5,59.644 103.419,59.834L199.689,116.071C199.817,115.911 199.959,115.767 200.115,115.639L168.618,58.998ZM0.98,2.834C0.823,2.886 0.662,2.92 0.5,2.939L0.5,115.056C0.651,115.09 0.797,115.138 0.939,115.198L31.431,58.498L0.98,2.834ZM169.484,58.498L200.993,115.16C201.153,115.106 201.322,115.066 201.5,115.039L201.5,2.872C201.343,2.834 201.187,2.783 201.036,2.72L169.484,58.498ZM2.317,1.933C2.19,2.088 2.039,2.234 1.864,2.366L32.297,57.997C54.154,58.155 75.967,58.237 97.767,58.244C97.777,58.077 97.803,57.908 97.847,57.737L2.317,1.933ZM199.807,1.86L103.554,58.087C103.565,58.139 103.575,58.191 103.584,58.244C125.263,58.237 146.932,58.155 168.618,57.998L200.177,2.208C200.045,2.101 199.921,1.985 199.807,1.86ZM199.075,0.5L134.014,0.5L102.612,56.333C102.844,56.567 103.043,56.84 103.202,57.135L199.252,1.026C199.176,0.858 199.116,0.682 199.075,0.5ZM98.744,56.242L66.992,0.5L2.877,0.5C2.863,0.685 2.831,0.867 2.78,1.045L98.257,56.819C98.397,56.604 98.56,56.411 98.744,56.242Z" style="fill:white;"/>
    </g>
</svg>
